<?xml version="1.0" encoding="UTF-8" standalone="no"?>
<svg
	xmlns="http://www.w3.org/2000/svg"
	xmlns:svg="http://www.w3.org/2000/svg"
	width="250"
	height="250"
	id="wikivoyage">
	<path
		style="fill:#006699;fill-opacity:1;stroke:none"
		d="M 131.93745,4.77265 C 122.73603,4.32457 113.54937,4.9521 104.61507,6.57458 104.5653,6.5875 104.51228,6.59687 104.46289,6.61003 100.44562,7.67995 97.64891,9.52443 96.45544,12.23589 91.36239,23.80694 116.93384,46.31067 153.54288,62.42427 190.15188,78.53786 224.04692,82.20861 229.13997,70.63755 230.32788,67.93871 229.79863,64.6384 227.89639,60.97395 227.85622,60.90987 227.81544,60.84802 227.77514,60.78401 222.93219,53.09158 217.20388,45.90658 210.65007,39.41834 210.61736,39.44905 210.57487,39.47691 210.54251,39.50757 214.95189,43.52171 217.06339,46.95546 216.06975,49.21292 213.43403,55.20104 190.00138,50.71322 163.77796,39.17087 137.55452,27.6285 118.41832,13.37946 121.05402,7.39134 122.04758,5.13399 126.00645,4.37193 131.9443,4.91224 131.94314,4.86875 131.9387,4.81656 131.93745,4.77265 z"
		id="p1" />
	<path
		style="fill:#339967;fill-opacity:1;stroke:none"
		d="M 63.28109,29.78125 C 50.470633,75.268496 57.145225,107.01247 61.24984,129.78125 67.005554,121.66827 72.858627,113.60773 78.87484,105.625 90.750792,116.04667 105.56321,125.54527 122.49984,133 175.15693,156.17724 228.44798,150.98818 241.46859,121.40625 244.42602,114.68717 245.04122,107.29321 243.62484,99.59375 243.60101,99.484203 243.58647,99.35948 243.56234,99.25 242.07804,92.515387 240.03758,85.90236 237.43734,79.53125 239.34207,85.273397 239.43533,90.69367 237.37484,95.375 228.61412,115.27879 184.59558,115.18788 139.15609,95.1875 125.74456,89.284361 113.68632,82.297752 103.59359,74.875 110.3507,67.077078 117.42204,59.434448 124.90609,52 99.57781,48.183596 77.861331,41.658681 63.28109,29.78125 z"
		id="p2" />
	<path
		style="fill:#990100;fill-opacity:1;stroke:none"
		d="M 44.40609,36.5625 C 32.571802,47.457701 22.73475,60.90623 15.84359,76.5625 15.737989,76.8024 15.63498,77.04103 15.53109,77.28125 0.3918192,124.02282 32.46467,180.1881 90.46859,205.71875 104.58396,211.93169 119.00621,215.7757 133.09359,217.4375 L 125.90609,231.8125 C 159.54396,222.80477 193.59374,205.75783 222.87484,181.3125 204.2262,180.47457 176.19843,168.21141 164.28109,155.03125 L 150.43734,182.71875 C 135.99276,180.84176 120.96219,176.71822 106.12484,170.1875 48.362657,144.76323 15.38143,92.54815 32.49984,53.65625 35.340178,47.203199 39.3753,41.53139 44.40609,36.65625 44.410268,36.627222 44.40406,36.59302 44.40609,36.5625 z"
		id="p3" />
	<path
		style="fill:#006699;fill-opacity:1;stroke:none"
		d="M 221.78156,197.894 C 192.23263,234.7729 134.75524,246.72242 82.53935,223.73938 30.40693,200.7931 0.41405,150.46186 7.5219,103.8257 -2.0575,157.26237 25.64807,212.32155 77.51623,235.15156 129.45513,258.01269 188.87251,241.18102 221.78156,197.894 z"
		id="p4" />
</svg>
